<?xml version="1.0"?>
<svg xmlns="http://www.w3.org/2000/svg" xmlns:xlink="http://www.w3.org/1999/xlink" version="1.1" viewBox="0 0 172 172" width="50px" height="50px"><g transform=""><g fill="none" fill-rule="nonzero" stroke="none" stroke-width="1" stroke-linecap="butt" stroke-linejoin="miter" stroke-miterlimit="10" stroke-dasharray="" stroke-dashoffset="0" font-family="none" font-weight="none" font-size="none" text-anchor="none" style="mix-blend-mode: normal"><path d="M0,172v-172h172v172z" fill="none"/><g fill="#28caef"><path d="M17.2,40.13333c-2.06765,-0.02924 -3.99087,1.05709 -5.03322,2.843c-1.04236,1.78592 -1.04236,3.99474 0,5.78066c1.04236,1.78592 2.96558,2.87225 5.03322,2.843h137.6c2.06765,0.02924 3.99087,-1.05709 5.03322,-2.843c1.04236,-1.78592 1.04236,-3.99474 0,-5.78066c-1.04236,-1.78592 -2.96558,-2.87225 -5.03322,-2.843zM17.2,80.26667c-2.06765,-0.02924 -3.99087,1.05709 -5.03322,2.843c-1.04236,1.78592 -1.04236,3.99474 0,5.78066c1.04236,1.78592 2.96558,2.87225 5.03322,2.843h137.6c2.06765,0.02924 3.99087,-1.05709 5.03322,-2.843c1.04236,-1.78592 1.04236,-3.99474 0,-5.78066c-1.04236,-1.78592 -2.96558,-2.87225 -5.03322,-2.843zM17.2,120.4c-2.06765,-0.02924 -3.99087,1.05709 -5.03322,2.843c-1.04236,1.78592 -1.04236,3.99474 0,5.78066c1.04236,1.78592 2.96558,2.87225 5.03322,2.843h137.6c2.06765,0.02924 3.99087,-1.05709 5.03322,-2.843c1.04236,-1.78592 1.04236,-3.99474 0,-5.78066c-1.04236,-1.78592 -2.96558,-2.87225 -5.03322,-2.843z"/></g><path d="M86,172c-47.49649,0 -86,-38.50351 -86,-86v0c0,-47.49649 38.50351,-86 86,-86v0c47.49649,0 86,38.50351 86,86v0c0,47.49649 -38.50351,86 -86,86z" fill="none"/><path d="M86,168.56c-45.59663,0 -82.56,-36.96337 -82.56,-82.56v0c0,-45.59663 36.96337,-82.56 82.56,-82.56v0c45.59663,0 82.56,36.96337 82.56,82.56v0c0,45.59663 -36.96337,82.56 -82.56,82.56z" fill="none"/><path d="M0,172v-172h172v172z" fill="none"/><path d="M3.44,168.56v-165.12h165.12v165.12z" fill="none"/></g></g></svg>
