<svg xmlns="http://www.w3.org/2000/svg" viewBox="0 0 1440 320"><path fill="#FFF" fill-opacity="1" d="M0,96L34.3,117.3C68.6,139,137,181,206,170.7C274.3,160,343,96,411,106.7C480,117,549,203,617,224C685.7,245,754,203,823,186.7C891.4,171,960,181,1029,202.7C1097.1,224,1166,256,1234,272C1302.9,288,1371,288,1406,288L1440,288L1440,320L1405.7,320C1371.4,320,1303,320,1234,320C1165.7,320,1097,320,1029,320C960,320,891,320,823,320C754.3,320,686,320,617,320C548.6,320,480,320,411,320C342.9,320,274,320,206,320C137.1,320,69,320,34,320L0,320Z"></path></svg>
